<?xml version="1.0" ?><svg enable-background="new 0 0 128 128" id="Слой_1" version="1.1" viewBox="0 0 128 128" xml:space="preserve" xmlns="http://www.w3.org/2000/svg" xmlns:xlink="http://www.w3.org/1999/xlink"><g><g><path d="M68.0195312,83.8496094c-0.5195312,0-1.0400391-0.2099609-1.4101562-0.5898438    c-0.3691406-0.3701172-0.5898438-0.8798828-0.5898438-1.4101562c0-0.5297852,0.2207031-1.0395508,0.5898438-1.409668    c0.7402344-0.75,2.0800781-0.75,2.8300781-0.0102539c0.3701172,0.3803711,0.5800781,0.8999023,0.5800781,1.4199219    s-0.2099609,1.0400391-0.5800781,1.4101562C69.0693359,83.6396484,68.5498047,83.8496094,68.0195312,83.8496094z" fill="#3399CC"/></g><g><path d="M74.359375,83.8496094c-0.5292969,0-1.0498047-0.2099609-1.4199219-0.5795898    c-0.3701172-0.3803711-0.5800781-0.8901367-0.5800781-1.4204102c0-0.5297852,0.2099609-1.0395508,0.5800781-1.409668    c0.7402344-0.75,2.0800781-0.75,2.8300781,0c0.3701172,0.3701172,0.5898438,0.8798828,0.5898438,1.409668    c0,0.5200195-0.2197266,1.0400391-0.5898438,1.4204102C75.3994141,83.6396484,74.8798828,83.8496094,74.359375,83.8496094z" fill="#3399CC"/></g><g><path d="M87.0195312,84.8496094c-0.5195312,0-1.0400391-0.2099609-1.4101562-0.5898438    c-0.3691406-0.3701172-0.5898438-0.8798828-0.5898438-1.4101562c0-0.5200195,0.2207031-1.0395508,0.5898438-1.409668    c0.7402344-0.75,2.0800781-0.75,2.8300781,0c0.3701172,0.3701172,0.5800781,0.8896484,0.5800781,1.409668    c0,0.5302734-0.2099609,1.0400391-0.5800781,1.4101562C88.0693359,84.6396484,87.5498047,84.8496094,87.0195312,84.8496094z" fill="#3399CC"/></g><g><path d="M93.0195312,87.8496094c-0.5195312,0-1.0400391-0.2099609-1.4101562-0.5898438    c-0.3691406-0.3701172-0.5898438-0.8798828-0.5898438-1.4101562c0-0.5200195,0.2207031-1.0395508,0.5898438-1.409668    c0.75-0.75,2.0800781-0.75,2.8300781-0.0102539c0.3701172,0.3803711,0.5800781,0.8999023,0.5800781,1.4199219    c0,0.5302734-0.2099609,1.0400391-0.5800781,1.4101562C94.0595703,87.6396484,93.5498047,87.8496094,93.0195312,87.8496094z" fill="#3399CC"/></g><g><path d="M80.6894531,83.8496094c-0.5292969,0-1.0400391-0.2099609-1.4199219-0.5898438    c-0.3701172-0.3701172-0.5800781-0.8798828-0.5800781-1.4101562c0-0.5297852,0.2099609-1.0395508,0.5800781-1.409668    c0.75-0.75,2.0898438-0.75,2.8300781,0c0.3798828,0.3701172,0.5898438,0.8896484,0.5898438,1.409668    c0,0.5302734-0.2099609,1.0400391-0.5898438,1.4101562C81.7294922,83.6396484,81.2197266,83.8496094,80.6894531,83.8496094z" fill="#3399CC"/></g><g><path d="M92.0195312,67.8496094c-0.5195312,0-1.0400391-0.2099609-1.4101562-0.5898438    c-0.3691406-0.3701172-0.5898438-0.8798828-0.5898438-1.4101562c0-0.5200195,0.2207031-1.0395508,0.5898438-1.409668    c0.7402344-0.75,2.0800781-0.75,2.8300781-0.0102539c0.3701172,0.3803711,0.5800781,0.8999023,0.5800781,1.4199219    s-0.2099609,1.0400391-0.5800781,1.4101562C93.0595703,67.6396484,92.5498047,67.8496094,92.0195312,67.8496094z" fill="#3399CC"/></g><g><path d="M92.0195312,73.8496094c-0.5195312,0-1.0400391-0.2099609-1.4101562-0.5795898    c-0.3691406-0.3803711-0.5898438-0.9003906-0.5898438-1.4204102s0.2207031-1.0395508,0.5898438-1.409668    c0.7402344-0.75,2.0800781-0.75,2.8300781,0c0.3701172,0.3701172,0.5800781,0.8896484,0.5800781,1.409668    s-0.2099609,1.0400391-0.5800781,1.4101562C93.0595703,73.6396484,92.5498047,73.8496094,92.0195312,73.8496094z" fill="#3399CC"/></g><g><path d="M93.0195312,80.8496094c-0.5195312,0-1.0400391-0.2099609-1.4101562-0.5795898    c-0.3798828-0.3803711-0.5898438-0.9003906-0.5898438-1.4204102s0.2099609-1.0395508,0.5898438-1.409668    c0.7402344-0.75,2.0800781-0.75,2.8300781,0c0.3701172,0.3701172,0.5800781,0.8896484,0.5800781,1.409668    s-0.2099609,1.0400391-0.5800781,1.4204102C94.0595703,80.6396484,93.5498047,80.8496094,93.0195312,80.8496094z" fill="#3399CC"/></g><g><path d="M62.46875,83.5507812H32.9765625c-1.1044922,0-2-0.8955078-2-2V42.1499023c0-1.1044922,0.8955078-2,2-2    h58.984375c1.1044922,0,2,0.8955078,2,2v17.7006836c0,1.1044922-0.8955078,2-2,2s-2-0.8955078-2-2V44.1499023h-54.984375    v35.4008789H62.46875c1.1044922,0,2,0.8955078,2,2S63.5732422,83.5507812,62.46875,83.5507812z" fill="#3399CC"/></g></g></svg>